# xmcd
#
# Track frame offsets:
#	150
#	8870
#	19685
#	40535
#	58795
#	72105
#	77942
#	89587
#	105772
#	136435
#	149587
#	173477
#	197370
#
# Disc length: 2775 seconds
#
# Revision: 1
# Processed by: cddbd v1.4PL0 Copyright (c) Steve Scherf et al.
# Submitted via: audiograbber 1.80.04
#
DISCID=a20ad50d
DTITLE=Climax Blues Band - A Lot Of Bottle
DYEAR=1900
DGENRE=Blues
TTITLE0=Country Hat
TTITLE1=Everyday
TTITLE2=Reap What I've Sowed
TTITLE3=Brief Case
TTITLE4=Alright Blue
TTITLE5=Country Hat (Reprise)
TTITLE6=Morning Noon And Night
TTITLE7=Long Lovin' Man
TTITLE8=Seventh Son
TTITLE9=Please Don't Help Me
TTITLE10=Louisiana Blues
TTITLE11=Cut You Loose
TTITLE12=Loving Machine
EXTD=
EXTT0=
EXTT1=
EXTT2=
EXTT3=
EXTT4=
EXTT5=
EXTT6=
EXTT7=
EXTT8=
EXTT9=
EXTT10=
EXTT11=
EXTT12=
PLAYORDER=
